<svg id="Filled" height="512" viewBox="0 0 512 512" width="512" xmlns="http://www.w3.org/2000/svg"><path d="m392 488h-272a48 48 0 0 1 -48-48v-368a48 48 0 0 1 48-48h224l96 96v320a48 48 0 0 1 -48 48z" fill="#8690fa"/><path d="m72 360h368a0 0 0 0 1 0 0v80a48 48 0 0 1 -48 48h-272a48 48 0 0 1 -48-48v-80a0 0 0 0 1 0 0z" fill="#cfd2fc"/><path d="m440 120h-48a48 48 0 0 1 -48-48v-48z" fill="#cfd2fc"/><path d="m264 115.556v70.6a16 16 0 1 1 -16 0v-70.6l-64 92.444 40 56h64l40-56z" fill="#fff"/><path d="m224 264h64v32h-64z" fill="#5153ff"/><path d="m349.657 18.343a8 8 0 0 0 -5.657-2.343h-224a56.064 56.064 0 0 0 -56 56v368a56.064 56.064 0 0 0 56 56h272a56.064 56.064 0 0 0 56-56v-320a8 8 0 0 0 -2.343-5.657zm2.343 24.97 68.687 68.687h-28.687a40.045 40.045 0 0 1 -40-40zm-232-11.313h216v40a56.064 56.064 0 0 0 56 56h40v224h-352v-280a40.045 40.045 0 0 1 40-40zm272 448h-272a40.045 40.045 0 0 1 -40-40v-72h352v72a40.045 40.045 0 0 1 -40 40z"/><path d="m231.491 389.191a8 8 0 0 0 -14.982 0l-24 64a8 8 0 0 0 14.982 5.618l4.053-10.809h24.912l4.053 10.809a8 8 0 1 0 14.982-5.618zm-13.947 42.809 6.456-17.216 6.456 17.216z"/><path d="m312 400a8 8 0 0 0 0-16h-32a8 8 0 0 0 0 16h8v48h-8a8 8 0 0 0 0 16h32a8 8 0 0 0 0-16h-8v-48z"/><path d="m216 266.564v29.436a8 8 0 0 0 8 8h64a8 8 0 0 0 8-8v-29.436l38.51-53.914a8 8 0 0 0 .068-9.2l-72-104a8 8 0 0 0 -13.156 0l-72 104a8 8 0 0 0 .068 9.2zm16 21.436v-16h48v16zm32-88a8 8 0 1 1 -8-8 8.009 8.009 0 0 1 8 8zm-16-70.39v47.766a24 24 0 1 0 16 0v-47.766l54.22 78.318-34.337 48.072h-55.766l-34.337-48.072z"/></svg>