<svg id="Filled" height="512" viewBox="0 0 512 512" width="512" xmlns="http://www.w3.org/2000/svg"><path d="m392 488h-272a48 48 0 0 1 -48-48v-368a48 48 0 0 1 48-48h224l96 96v320a48 48 0 0 1 -48 48z" fill="#8690fa"/><circle cx="224" cy="184" fill="#fff" r="16"/><circle cx="288" cy="264" fill="#fff" r="16"/><path d="m72 360h368a0 0 0 0 1 0 0v80a48 48 0 0 1 -48 48h-272a48 48 0 0 1 -48-48v-80a0 0 0 0 1 0 0z" fill="#cfd2fc"/><path d="m440 120h-48a48 48 0 0 1 -48-48v-48z" fill="#cfd2fc"/><path d="m349.657 18.343a8 8 0 0 0 -5.657-2.343h-224a56.063 56.063 0 0 0 -56 56v368a56.063 56.063 0 0 0 56 56h272a56.063 56.063 0 0 0 56-56v-320a8 8 0 0 0 -2.343-5.657zm2.343 24.97 68.687 68.687h-28.687a40.045 40.045 0 0 1 -40-40zm-232-11.313h216v40a56.063 56.063 0 0 0 56 56h40v224h-352v-280a40.045 40.045 0 0 1 40-40zm272 448h-272a40.045 40.045 0 0 1 -40-40v-72h352v72a40.045 40.045 0 0 1 -40 40z"/><path d="m199.49 389.191a8 8 0 0 0 -14.98 0l-24 64a8 8 0 1 0 14.98 5.618l4.054-10.809h24.912l4.054 10.809a8 8 0 1 0 14.98-5.618zm-13.946 42.809 6.456-17.216 6.456 17.216z"/><path d="m264 400h16a8 8 0 0 0 0-16h-16a24 24 0 0 0 0 48 8 8 0 0 1 0 16h-16a8 8 0 0 0 0 16h16a24 24 0 0 0 0-48 8 8 0 0 1 0-16z"/><path d="m328 384h-16a8 8 0 0 0 -8 8v64a8 8 0 0 0 16 0v-24h8a24 24 0 0 0 0-48zm0 32h-8v-16h8a8 8 0 0 1 0 16z"/><path d="m170.343 277.657a8 8 0 1 0 11.314-11.314l-42.344-42.343 42.344-42.343a8 8 0 0 0 -11.314-11.314l-48 48a8 8 0 0 0 0 11.314z"/><path d="m330.343 277.657a8 8 0 0 0 11.314 0l48-48a8 8 0 0 0 0-11.314l-48-48a8 8 0 0 0 -11.314 11.314l42.344 42.343-42.344 42.343a8 8 0 0 0 0 11.314z"/><path d="m219.562 278.656a8 8 0 0 0 11.094-2.218l64-96a8 8 0 0 0 -13.312-8.876l-64 96a8 8 0 0 0 2.218 11.094z"/><path d="m223.024 207.979q.5.021.989.021a24.026 24.026 0 1 0 -.989-.021zm-4.446-29.862a7.942 7.942 0 0 1 5.415-2.117c.111 0 .222 0 .333.007a8 8 0 1 1 -5.748 2.111z"/><path d="m264 264a24 24 0 1 0 24-24 24.028 24.028 0 0 0 -24 24zm32 0a8 8 0 1 1 -8-8 8.009 8.009 0 0 1 8 8z"/></svg>