<svg id="Filled" height="512" viewBox="0 0 512 512" width="512" xmlns="http://www.w3.org/2000/svg"><path d="m392 488h-272a48 48 0 0 1 -48-48v-368a48 48 0 0 1 48-48h224l96 96v320a48 48 0 0 1 -48 48z" fill="#8690fa"/><path d="m136 136h144v32h-144z" fill="#5153ff"/><g fill="#cfd2fc"><path d="m72 360h368a0 0 0 0 1 0 0v80a48 48 0 0 1 -48 48h-272a48 48 0 0 1 -48-48v-80a0 0 0 0 1 0 0z"/><path d="m440 120h-48a48 48 0 0 1 -48-48v-48z"/><path d="m136 168h144v128h-144z"/></g><path d="m376 232v-32h-34.332a55.685 55.685 0 0 0 -4.4-10.641l24.271-24.271-22.627-22.627-24.271 24.271a55.685 55.685 0 0 0 -10.641-4.4v-26.332h-32v26.332a55.685 55.685 0 0 0 -10.641 4.4l-24.271-24.271-22.627 22.627 24.271 24.271a55.685 55.685 0 0 0 -4.4 10.641h-34.332v32h34.332a55.685 55.685 0 0 0 4.4 10.641l-24.271 24.271 22.627 22.627 24.271-24.271a55.685 55.685 0 0 0 10.641 4.4v26.332h32v-26.332a55.685 55.685 0 0 0 10.641-4.4l24.271 24.271 22.627-22.627-24.271-24.271a55.685 55.685 0 0 0 4.4-10.641zm-88 8a24 24 0 1 1 24-24 24 24 0 0 1 -24 24z" fill="#fff"/><path d="m349.657 18.343a8 8 0 0 0 -5.657-2.343h-224a56.063 56.063 0 0 0 -56 56v368a56.063 56.063 0 0 0 56 56h272a56.063 56.063 0 0 0 56-56v-320a8 8 0 0 0 -2.343-5.657zm2.343 24.97 68.687 68.687h-28.687a40.045 40.045 0 0 1 -40-40zm-232-11.313h216v40a56.063 56.063 0 0 0 56 56h40v224h-352v-280a40.045 40.045 0 0 1 40-40zm272 448h-272a40.045 40.045 0 0 1 -40-40v-72h352v72a40.045 40.045 0 0 1 -40 40z"/><path d="m184 384h-16a8 8 0 0 0 -8 8v64a8 8 0 0 0 8 8h16a23.984 23.984 0 0 0 17.869-40 23.984 23.984 0 0 0 -17.869-40zm-8 16h8a8 8 0 0 1 0 16h-8zm8 48h-8v-16h8a8 8 0 0 1 0 16z"/><path d="m344 384h-32a8 8 0 0 0 0 16h8v56a8 8 0 0 0 16 0v-56h8a8 8 0 0 0 0-16z"/><path d="m263.491 389.191a8 8 0 0 0 -14.982 0l-24 64a8 8 0 0 0 14.982 5.618l4.053-10.809h24.912l4.053 10.809a8 8 0 0 0 14.982-5.618zm-13.947 42.809 6.456-17.216 6.456 17.216z"/><path d="m136 304h168a8 8 0 0 0 8-8v-20.664q.5-.2.987-.407l20.268 20.271a8 8 0 0 0 11.313 0l22.632-22.631a8 8 0 0 0 0-11.314l-20.268-20.268q.209-.492.408-.987h28.66a8 8 0 0 0 8-8v-32a8 8 0 0 0 -8-8h-28.664q-.2-.5-.408-.987l20.272-20.268a8 8 0 0 0 0-11.314l-22.632-22.631a8 8 0 0 0 -11.313 0l-20.268 20.267q-.49-.207-.987-.407v-20.66a8 8 0 0 0 -8-8h-168a8 8 0 0 0 -8 8v160a8 8 0 0 0 8 8zm8-128h70.059l15.012 15.013c-.138.327-.274.657-.407.987h-28.664a8 8 0 0 0 -8 8v32a8 8 0 0 0 8 8h28.664c.133.33.269.66.407.987l-20.271 20.268a8 8 0 0 0 0 11.314l15.435 15.431h-80.235zm120 112h-14.059l13.071-13.071q.492.207.988.407zm10.283-118a8 8 0 0 0 5.717-7.668v-18.332h16v18.332a8 8 0 0 0 5.717 7.668 47.755 47.755 0 0 1 9.112 3.768 8 8 0 0 0 9.468-1.377l18.615-18.616 11.314 11.314-18.615 18.611a8 8 0 0 0 -1.377 9.468 47.764 47.764 0 0 1 3.766 9.114 8 8 0 0 0 7.667 5.718h26.333v16h-26.333a8 8 0 0 0 -7.667 5.718 47.764 47.764 0 0 1 -3.766 9.112 8 8 0 0 0 1.377 9.468l18.615 18.614-11.314 11.314-18.612-18.616a8.006 8.006 0 0 0 -9.468-1.377 47.755 47.755 0 0 1 -9.115 3.767 8 8 0 0 0 -5.717 7.668v18.332h-16v-18.332a8 8 0 0 0 -5.717-7.668 47.817 47.817 0 0 1 -9.112-3.767 8 8 0 0 0 -9.468 1.376l-18.615 18.616-11.314-11.314 18.615-18.611a8 8 0 0 0 1.377-9.469 47.76 47.76 0 0 1 -3.766-9.114 8 8 0 0 0 -7.668-5.717h-26.332v-16h26.332a8 8 0 0 0 7.668-5.717 47.76 47.76 0 0 1 3.766-9.112 8 8 0 0 0 -1.377-9.469l-18.615-18.614 11.314-11.314 18.612 18.616a8 8 0 0 0 9.468 1.376 47.817 47.817 0 0 1 9.115-3.766zm-24.342-26h14.059v12.664q-.5.2-.988.407zm-25.706 0-15.435 15.431c-.182.182-.353.372-.515.569h-64.285v-16z"/><path d="m288 248a32 32 0 1 0 -32-32 32.036 32.036 0 0 0 32 32zm0-48a16 16 0 1 1 -16 16 16.019 16.019 0 0 1 16-16z"/><path d="m184 256h-16a8 8 0 0 0 0 16h16a8 8 0 0 0 0-16z"/><circle cx="168" cy="232" r="8"/><circle cx="168" cy="200" r="8"/></svg>