<svg id="Filled" height="512" viewBox="0 0 512 512" width="512" xmlns="http://www.w3.org/2000/svg"><path d="m392 488h-272a48 48 0 0 1 -48-48v-368a48 48 0 0 1 48-48h224l96 96v320a48 48 0 0 1 -48 48z" fill="#8690fa"/><path d="m72 360h368a0 0 0 0 1 0 0v80a48 48 0 0 1 -48 48h-272a48 48 0 0 1 -48-48v-80a0 0 0 0 1 0 0z" fill="#cfd2fc"/><path d="m440 120h-48a48 48 0 0 1 -48-48v-48z" fill="#cfd2fc"/><path d="m349.657 18.343a8 8 0 0 0 -5.657-2.343h-224a56.064 56.064 0 0 0 -56 56v368a56.064 56.064 0 0 0 56 56h272a56.064 56.064 0 0 0 56-56v-320a8 8 0 0 0 -2.343-5.657zm2.343 24.97 68.687 68.687h-28.687a40.045 40.045 0 0 1 -40-40zm-232-11.313h216v40a56.064 56.064 0 0 0 56 56h40v224h-352v-280a40.045 40.045 0 0 1 40-40zm272 448h-272a40.045 40.045 0 0 1 -40-40v-72h352v72a40.045 40.045 0 0 1 -40 40z"/><path d="m168 384a8 8 0 0 0 -8 8v64a8 8 0 0 0 8 8 40 40 0 0 0 0-80zm8 62.629v-45.258a24 24 0 0 1 0 45.258z"/><path d="m256 384c-17.645 0-32 17.944-32 40s14.355 40 32 40 32-17.944 32-40-14.355-40-32-40zm0 64c-8.673 0-16-10.991-16-24s7.327-24 16-24 16 10.991 16 24-7.327 24-16 24z"/><path d="m336 400a10.708 10.708 0 0 1 4.59 1.058 8 8 0 1 0 6.82-14.474 26.581 26.581 0 0 0 -11.41-2.584c-17.645 0-32 17.944-32 40s14.355 40 32 40a26.6 26.6 0 0 0 11.411-2.584 8 8 0 0 0 -6.822-14.473 10.71 10.71 0 0 1 -4.589 1.057c-8.673 0-16-10.991-16-24s7.327-24 16-24z"/><path d="m192 168a8 8 0 0 0 8 8h176a8 8 0 0 0 0-16h-176a8 8 0 0 0 -8 8z"/><path d="m136 208h144a8 8 0 0 0 0-16h-144a8 8 0 0 0 0 16z"/><path d="m376 224h-128a8 8 0 0 0 0 16h128a8 8 0 0 0 0-16z"/><path d="m136 272h184a8 8 0 0 0 0-16h-184a8 8 0 0 0 0 16z"/><path d="m136 176h32a8 8 0 0 0 0-16h-32a8 8 0 0 0 0 16z"/><path d="m376 192h-64a8 8 0 0 0 0 16h64a8 8 0 0 0 0-16z"/><path d="m136 240h80a8 8 0 0 0 0-16h-80a8 8 0 0 0 0 16z"/><path d="m376 256h-24a8 8 0 0 0 0 16h24a8 8 0 0 0 0-16z"/><path d="m136 304h48a8 8 0 0 0 0-16h-48a8 8 0 0 0 0 16z"/><path d="m136 144h80a8 8 0 0 0 0-16h-80a8 8 0 0 0 0 16z"/><path d="m296 288h-80a8 8 0 0 0 0 16h80a8 8 0 0 0 0-16z"/><path d="m376 288h-48a8 8 0 0 0 0 16h48a8 8 0 0 0 0-16z"/></svg>