<svg id="Filled" height="512" viewBox="0 0 512 512" width="512" xmlns="http://www.w3.org/2000/svg"><path d="m392 488h-272a48 48 0 0 1 -48-48v-368a48 48 0 0 1 48-48h224l96 96v320a48 48 0 0 1 -48 48z" fill="#8690fa"/><path d="m72 360h368a0 0 0 0 1 0 0v80a48 48 0 0 1 -48 48h-272a48 48 0 0 1 -48-48v-80a0 0 0 0 1 0 0z" fill="#cfd2fc"/><path d="m440 120h-48a48 48 0 0 1 -48-48v-48z" fill="#cfd2fc"/><path d="m224 176h64v64h-64z" fill="#fff"/><path d="m349.657 18.343a8 8 0 0 0 -5.657-2.343h-224a56.063 56.063 0 0 0 -56 56v368a56.063 56.063 0 0 0 56 56h272a56.063 56.063 0 0 0 56-56v-320a8 8 0 0 0 -2.343-5.657zm2.343 24.97 68.687 68.687h-28.687a40.045 40.045 0 0 1 -40-40zm-232-11.313h216v40a56.063 56.063 0 0 0 56 56h40v224h-352v-280a40.045 40.045 0 0 1 40-40zm272 448h-272a40.045 40.045 0 0 1 -40-40v-72h352v72a40.045 40.045 0 0 1 -40 40z"/><path d="m168 384a8 8 0 0 0 -8 8v64a8 8 0 0 0 8 8 40 40 0 0 0 0-80zm8 62.629v-45.258a24 24 0 0 1 0 45.258z"/><path d="m360 416h-16a8 8 0 0 0 0 16h7.049c-2.252 9.217-8.236 16-15.049 16-8.673 0-16-10.99-16-24s7.327-24 16-24a10.675 10.675 0 0 1 4.588 1.058 8 8 0 0 0 6.824-14.473 26.587 26.587 0 0 0 -11.412-2.585c-17.645 0-32 17.944-32 40s14.355 40 32 40 32-17.944 32-40a8 8 0 0 0 -8-8z"/><path d="m280.992 384.062a8 8 0 0 0 -8.93 6.946l-3.625 29-4.848-14.541a8 8 0 0 0 -15.178 0l-4.848 14.541-3.625-29a8 8 0 1 0 -15.876 1.984l8 64a8 8 0 0 0 15.527 1.538l8.411-25.23 8.411 25.232a8 8 0 0 0 7.589 5.468q.394 0 .793-.039a8 8 0 0 0 7.15-6.969l8-64a8 8 0 0 0 -6.951-8.93z"/><circle cx="256" cy="208" r="8"/><path d="m168 216h48v24a8 8 0 0 0 8 8h24v48a8 8 0 0 0 16 0v-48h24a8 8 0 0 0 8-8v-24h48a8 8 0 0 0 0-16h-48v-24a8 8 0 0 0 -8-8h-24v-48a8 8 0 0 0 -16 0v48h-24a8 8 0 0 0 -8 8v24h-48a8 8 0 0 0 0 16zm64-32h48v48h-48z"/></svg>