<?xml version="1.0"?>
<svg xmlns="http://www.w3.org/2000/svg" id="Filled" viewBox="0 0 512 512" width="512" height="512"><path d="M392,488H120a48,48,0,0,1-48-48V72a48,48,0,0,1,48-48H344l96,96V440A48,48,0,0,1,392,488Z" style="fill:#8690fa"/><path d="M72,360H440a0,0,0,0,1,0,0v80a48,48,0,0,1-48,48H120a48,48,0,0,1-48-48V360A0,0,0,0,1,72,360Z" style="fill:#cfd2fc"/><path d="M440,120H392a48,48,0,0,1-48-48V24Z" style="fill:#cfd2fc"/><path d="M368,166.66V281.34A14.671,14.671,0,0,1,353.34,296H158.66A14.671,14.671,0,0,1,144,281.34V166.66A14.673,14.673,0,0,1,158.66,152H353.34A14.673,14.673,0,0,1,368,166.66Z" style="fill:#5153ff"/><path d="M363.17,292.21a14.575,14.575,0,0,1-9.83,3.79H158.66a14.575,14.575,0,0,1-9.83-3.79L256,208Z" style="fill:#cfd2fc"/><path d="M366.28,159.78,256,248,145.72,159.78A14.648,14.648,0,0,1,158.66,152H353.34A14.648,14.648,0,0,1,366.28,159.78Z" style="fill:#fff"/><path d="M349.657,18.343A8,8,0,0,0,344,16H120A56.064,56.064,0,0,0,64,72V440a56.064,56.064,0,0,0,56,56H392a56.063,56.063,0,0,0,56-56V120a8,8,0,0,0-2.343-5.657ZM352,43.313,420.687,112H392a40.045,40.045,0,0,1-40-40ZM120,32H336V72a56.063,56.063,0,0,0,56,56h40V352H80V72A40.045,40.045,0,0,1,120,32ZM392,480H120a40.045,40.045,0,0,1-40-40V368H432v72A40.045,40.045,0,0,1,392,480Z"/><path d="M200,400a8,8,0,0,0,0-16H168a8,8,0,0,0-8,8v64a8,8,0,0,0,8,8h32a8,8,0,0,0,0-16H176V432h8a8,8,0,0,0,0-16h-8V400Z"/><path d="M344,448H320V392a8,8,0,0,0-16,0v64a8,8,0,0,0,8,8h32a8,8,0,0,0,0-16Z"/><path d="M281.608,384.164a8,8,0,0,0-8.961,4.685L256,427.691l-16.647-38.842A8,8,0,0,0,224,392v64a8,8,0,0,0,16,0V430.976l8.647,20.175a8,8,0,0,0,14.706,0L272,430.976V456a8,8,0,0,0,16,0V392A8,8,0,0,0,281.608,384.164Z"/><path d="M158.664,304H353.336A22.69,22.69,0,0,0,376,281.336V166.664A22.69,22.69,0,0,0,353.336,144H158.664A22.69,22.69,0,0,0,136,166.664V281.336A22.69,22.69,0,0,0,158.664,304Zm55.512-78.688L152,278.606V176.46ZM360,176.46V278.606l-62.176-53.294Zm-75,58.931L346.374,288H165.626L227,235.391l24.054,18.9a8,8,0,0,0,9.884,0ZM353.336,160a6.623,6.623,0,0,1,1.493.175L256,237.826l-98.829-77.651a6.623,6.623,0,0,1,1.493-.175Z"/></svg>
