<svg id="Filled" height="512" viewBox="0 0 512 512" width="512" xmlns="http://www.w3.org/2000/svg"><path d="m392 488h-272a48 48 0 0 1 -48-48v-368a48 48 0 0 1 48-48h224l96 96v320a48 48 0 0 1 -48 48z" fill="#8690fa"/><path d="m72 360h368a0 0 0 0 1 0 0v80a48 48 0 0 1 -48 48h-272a48 48 0 0 1 -48-48v-80a0 0 0 0 1 0 0z" fill="#cfd2fc"/><path d="m440 120h-48a48 48 0 0 1 -48-48v-48z" fill="#cfd2fc"/><g fill="#fff"><path d="m136 264h32v32h-32z"/><path d="m344 264h32v32h-32z"/><path d="m240 136h32v32h-32z"/></g><path d="m349.657 18.343a8 8 0 0 0 -5.657-2.343h-224a56.064 56.064 0 0 0 -56 56v368a56.064 56.064 0 0 0 56 56h272a56.063 56.063 0 0 0 56-56v-320a8 8 0 0 0 -2.343-5.657zm2.343 24.97 68.687 68.687h-28.687a40.045 40.045 0 0 1 -40-40zm-232-11.313h216v40a56.063 56.063 0 0 0 56 56h40v224h-352v-280a40.045 40.045 0 0 1 40-40zm272 448h-272a40.045 40.045 0 0 1 -40-40v-72h352v72a40.045 40.045 0 0 1 -40 40z"/><path d="m320 400h16a8 8 0 0 0 0-16h-16a24 24 0 0 0 0 48 8 8 0 0 1 0 16h-16a8 8 0 0 0 0 16h16a24 24 0 0 0 0-48 8 8 0 0 1 0-16z"/><path d="m256 384h-16a8 8 0 0 0 -8 8v64a8 8 0 0 0 16 0v-24h8a24 24 0 0 0 0-48zm0 32h-8v-16h8a8 8 0 0 1 0 16z"/><path d="m208 400a8 8 0 0 0 0-16h-32a8 8 0 0 0 -8 8v64a8 8 0 0 0 8 8h32a8 8 0 0 0 0-16h-24v-16h8a8 8 0 0 0 0-16h-8v-16z"/><path d="m136 304h32a8 8 0 0 0 8-8v-32a8 8 0 0 0 -8-8h-7.7a108.543 108.543 0 0 1 23.243-60.222 95.362 95.362 0 0 1 48.457-32.478v4.7a8 8 0 0 0 8 8h32a8 8 0 0 0 8-8v-4.7a95.362 95.362 0 0 1 48.453 32.478 108.543 108.543 0 0 1 23.247 60.222h-7.7a8 8 0 0 0 -8 8v32a8 8 0 0 0 8 8h32a8 8 0 0 0 8-8v-32a8 8 0 0 0 -8-8h-8.277a124.673 124.673 0 0 0 -26.8-70.241 114.451 114.451 0 0 0 -29.036-25.759h48.113a8 8 0 0 0 0-16h-80v-8a8 8 0 0 0 -8-8h-32a8 8 0 0 0 -8 8v8h-80a8 8 0 0 0 0 16h48.113a114.451 114.451 0 0 0 -29.041 25.759 124.673 124.673 0 0 0 -26.795 70.241h-8.277a8 8 0 0 0 -8 8v32a8 8 0 0 0 8 8zm232-16h-16v-16h16zm-120-144h16v16h-16zm-104 128h16v16h-16z"/></svg>