<?xml version="1.0"?>
<svg xmlns="http://www.w3.org/2000/svg" id="Filled" viewBox="0 0 512 512" width="512" height="512"><path d="M392,488H120a48,48,0,0,1-48-48V72a48,48,0,0,1,48-48H344l96,96V440A48,48,0,0,1,392,488Z" style="fill:#8690fa"/><path d="M72,360H440a0,0,0,0,1,0,0v80a48,48,0,0,1-48,48H120a48,48,0,0,1-48-48V360A0,0,0,0,1,72,360Z" style="fill:#cfd2fc"/><path d="M440,120H392a48,48,0,0,1-48-48V24Z" style="fill:#cfd2fc"/><path d="M344,216V184H309.668a55.685,55.685,0,0,0-4.4-10.641l24.271-24.271-22.627-22.627-24.271,24.271a55.685,55.685,0,0,0-10.641-4.4V120H240v26.332a55.685,55.685,0,0,0-10.641,4.4l-24.271-24.271-22.627,22.627,24.271,24.271a55.685,55.685,0,0,0-4.4,10.641H168v32h34.332a55.685,55.685,0,0,0,4.4,10.641l-24.271,24.271,22.627,22.627,24.271-24.271a55.685,55.685,0,0,0,10.641,4.4V280h32V253.668a55.685,55.685,0,0,0,10.641-4.4l24.271,24.271,22.627-22.627-24.271-24.271a55.685,55.685,0,0,0,4.4-10.641Zm-88,8a24,24,0,1,1,24-24A24,24,0,0,1,256,224Z" style="fill:#fff"/><rect x="152" y="216" width="208" height="80" style="fill:#5153ff"/><path d="M288,256H224a8,8,0,0,1,0-16h64a8,8,0,0,1,0,16Z" style="fill:#fff"/><path d="M349.657,18.343A8,8,0,0,0,344,16H120A56.063,56.063,0,0,0,64,72V440a56.063,56.063,0,0,0,56,56H392a56.063,56.063,0,0,0,56-56V120a8,8,0,0,0-2.343-5.657ZM352,43.313,420.687,112H392a40.045,40.045,0,0,1-40-40ZM120,32H336V72a56.063,56.063,0,0,0,56,56h40V352H80V72A40.045,40.045,0,0,1,120,32ZM392,480H120a40.045,40.045,0,0,1-40-40V368H432v72A40.045,40.045,0,0,1,392,480Z"/><path d="M208,400a8,8,0,0,0,0-16H176a8,8,0,0,0-8,8v64a8,8,0,0,0,8,8h32a8,8,0,0,0,0-16H184V432h8a8,8,0,0,0,0-16h-8V400Z"/><path d="M336,400a8,8,0,0,0,0-16H304a8,8,0,0,0-8,8v64a8,8,0,0,0,8,8h32a8,8,0,0,0,0-16H312V432h8a8,8,0,0,0,0-16h-8V400Z"/><path d="M275.578,384.845a8,8,0,0,0-10.733,3.577L256,406.112l-8.845-17.69a8,8,0,0,0-14.31,7.156L247.056,424l-14.211,28.422a8,8,0,1,0,14.31,7.156L256,441.888l8.845,17.69a8,8,0,1,0,14.31-7.156L264.944,424l14.211-28.422A8,8,0,0,0,275.578,384.845Z"/><path d="M152,304H360a8,8,0,0,0,8-8V216a8,8,0,0,0-8-8h-8V184a8,8,0,0,0-8-8H315.336q-.2-.5-.407-.987L335.2,154.745a8,8,0,0,0,0-11.313L312.569,120.8a8,8,0,0,0-11.314,0l-20.268,20.267c-.327-.138-.657-.274-.987-.407V120a8,8,0,0,0-8-8H240a8,8,0,0,0-8,8v20.664c-.33.133-.66.269-.987.407L210.745,120.8a8,8,0,0,0-11.314,0L176.8,143.432a8,8,0,0,0,0,11.313l20.267,20.268q-.207.49-.407.987H168a8,8,0,0,0-8,8v24h-8a8,8,0,0,0-8,8v80A8,8,0,0,0,152,304Zm24-112h26.332A8,8,0,0,0,210,186.283a47.755,47.755,0,0,1,3.768-9.112,8,8,0,0,0-1.377-9.468l-18.616-18.615,11.314-11.314L223.7,156.389a8,8,0,0,0,9.469,1.377A47.76,47.76,0,0,1,242.283,154,8,8,0,0,0,248,146.332V128h16v18.332A8,8,0,0,0,269.717,154a47.76,47.76,0,0,1,9.112,3.766,8,8,0,0,0,9.469-1.377l18.614-18.615,11.314,11.314L299.61,167.7a8,8,0,0,0-1.377,9.468A47.755,47.755,0,0,1,302,186.283,8,8,0,0,0,309.668,192H336v16H286.979a32,32,0,1,0-61.958,0H176Zm66.155,16a16,16,0,1,1,27.69,0ZM160,224H352v64H160Z"/><path d="M288,240H224a8,8,0,0,0,0,16h64a8,8,0,0,0,0-16Z"/></svg>
