<svg id="Filled" height="512" viewBox="0 0 512 512" width="512" xmlns="http://www.w3.org/2000/svg"><path d="m392 488h-272a48 48 0 0 1 -48-48v-368a48 48 0 0 1 48-48h224l96 96v320a48 48 0 0 1 -48 48z" fill="#8690fa"/><path d="m72 360h368a0 0 0 0 1 0 0v80a48 48 0 0 1 -48 48h-272a48 48 0 0 1 -48-48v-80a0 0 0 0 1 0 0z" fill="#cfd2fc"/><path d="m440 120h-48a48 48 0 0 1 -48-48v-48z" fill="#cfd2fc"/><rect fill="#fff" height="144" rx="28.262" width="208" x="152" y="152"/><path d="m240 248v-48l48 24z" fill="#5153ff"/><path d="m349.657 18.343a8 8 0 0 0 -5.657-2.343h-224a56.063 56.063 0 0 0 -56 56v368a56.063 56.063 0 0 0 56 56h272a56.063 56.063 0 0 0 56-56v-320a8 8 0 0 0 -2.343-5.657zm2.343 24.97 68.687 68.687h-28.687a40.045 40.045 0 0 1 -40-40zm-232-11.313h216v40a56.063 56.063 0 0 0 56 56h40v224h-352v-280a40.045 40.045 0 0 1 40-40zm272 448h-272a40.045 40.045 0 0 1 -40-40v-72h352v72a40.045 40.045 0 0 1 -40 40z"/><path d="m337.94 384.239a8 8 0 0 0 -9.7 5.821l-8.24 32.956-8.239-32.956a8 8 0 1 0 -15.522 3.88l16 64a8 8 0 0 0 15.522 0l16-64a8 8 0 0 0 -5.821-9.701z"/><path d="m272 448h-24v-56a8 8 0 0 0 -16 0v64a8 8 0 0 0 8 8h32a8 8 0 0 0 0-16z"/><path d="m208 384h-32a8 8 0 0 0 -8 8v64a8 8 0 0 0 16 0v-24h8a8 8 0 0 0 0-16h-8v-16h24a8 8 0 0 0 0-16z"/><path d="m180.262 304h151.476a36.3 36.3 0 0 0 36.262-36.262v-87.476a36.3 36.3 0 0 0 -36.262-36.262h-151.476a36.3 36.3 0 0 0 -36.262 36.262v87.476a36.3 36.3 0 0 0 36.262 36.262zm-20.262-123.738a20.286 20.286 0 0 1 20.262-20.262h151.476a20.286 20.286 0 0 1 20.262 20.262v87.476a20.286 20.286 0 0 1 -20.262 20.262h-151.476a20.286 20.286 0 0 1 -20.262-20.262z"/><path d="m235.794 254.806a8 8 0 0 0 7.784.349l48-24a8 8 0 0 0 0-14.31l-48-24a8 8 0 0 0 -11.578 7.155v48a8 8 0 0 0 3.794 6.806zm12.206-41.862 22.111 11.056-22.111 11.056z"/></svg>