<?xml version="1.0"?>
<svg xmlns="http://www.w3.org/2000/svg" id="Filled" viewBox="0 0 512 512" width="512" height="512"><path d="M392,488H120a48,48,0,0,1-48-48V72a48,48,0,0,1,48-48H344l96,96V440A48,48,0,0,1,392,488Z" style="fill:#8690fa"/><path d="M72,360H440a0,0,0,0,1,0,0v80a48,48,0,0,1-48,48H120a48,48,0,0,1-48-48V360A0,0,0,0,1,72,360Z" style="fill:#cfd2fc"/><path d="M440,120H392a48,48,0,0,1-48-48V24Z" style="fill:#cfd2fc"/><path d="M188.893,136H323.107A12.893,12.893,0,0,1,336,148.893V296a0,0,0,0,1,0,0H176a0,0,0,0,1,0,0V148.893A12.893,12.893,0,0,1,188.893,136Z" style="fill:#fff"/><path d="M323.107,136H188.893A12.892,12.892,0,0,0,176,148.893V168H336V148.893A12.892,12.892,0,0,0,323.107,136Z" style="fill:#5153ff"/><path d="M349.657,18.343A8,8,0,0,0,344,16H120A56.063,56.063,0,0,0,64,72V440a56.063,56.063,0,0,0,56,56H392a56.063,56.063,0,0,0,56-56V120a8,8,0,0,0-2.343-5.657ZM352,43.313,420.687,112H392a40.045,40.045,0,0,1-40-40ZM120,32H336V72a56.063,56.063,0,0,0,56,56h40V352H80V72A40.045,40.045,0,0,1,120,32ZM392,480H120a40.045,40.045,0,0,1-40-40V368H432v72A40.045,40.045,0,0,1,392,480Z"/><path d="M176,304H336a8,8,0,0,0,8-8V148.894A20.918,20.918,0,0,0,323.106,128H312v-8a8,8,0,0,0-16,0v8H216v-8a8,8,0,0,0-16,0v8H188.894A20.918,20.918,0,0,0,168,148.894V296A8,8,0,0,0,176,304Zm8-16V176H328V288Zm4.894-144H200a8,8,0,0,0,16,0h80a8,8,0,0,0,16,0h11.106A4.9,4.9,0,0,1,328,148.894V160H184V148.894A4.9,4.9,0,0,1,188.894,144Z"/><circle cx="240" cy="200" r="8"/><circle cx="272" cy="200" r="8"/><circle cx="304" cy="200" r="8"/><circle cx="208" cy="232" r="8"/><circle cx="240" cy="232" r="8"/><circle cx="272" cy="232" r="8"/><circle cx="304" cy="232" r="8"/><circle cx="208" cy="264" r="8"/><circle cx="240" cy="264" r="8"/><circle cx="272" cy="264" r="8"/><circle cx="304" cy="264" r="8"/><path d="M320,400h16a8,8,0,0,0,0-16H320a24,24,0,0,0,0,48,8,8,0,0,1,0,16H304a8,8,0,0,0,0,16h16a24,24,0,0,0,0-48,8,8,0,0,1,0-16Z"/><path d="M264,400a10.675,10.675,0,0,1,4.588,1.058,8,8,0,0,0,6.824-14.473A26.587,26.587,0,0,0,264,384c-17.645,0-32,17.944-32,40s14.355,40,32,40a26.587,26.587,0,0,0,11.412-2.585,8,8,0,0,0-6.824-14.473A10.675,10.675,0,0,1,264,448c-8.673,0-16-10.99-16-24S255.327,400,264,400Z"/><path d="M208,400a8,8,0,0,0,0-16H176a8,8,0,0,0,0,16h8v48h-8a8,8,0,0,0,0,16h32a8,8,0,0,0,0-16h-8V400Z"/></svg>
