<svg id="Filled" height="512" viewBox="0 0 512 512" width="512" xmlns="http://www.w3.org/2000/svg"><path d="m392 488h-272a48 48 0 0 1 -48-48v-368a48 48 0 0 1 48-48h224l96 96v320a48 48 0 0 1 -48 48z" fill="#8690fa"/><path d="m72 360h368a0 0 0 0 1 0 0v80a48 48 0 0 1 -48 48h-272a48 48 0 0 1 -48-48v-80a0 0 0 0 1 0 0z" fill="#cfd2fc"/><path d="m440 120h-48a48 48 0 0 1 -48-48v-48z" fill="#cfd2fc"/><path d="m152 136h208v160h-208z" fill="#fff"/><path d="m216 216 40 48 48-16 56 48h-208z" fill="#5153ff"/><circle cx="288" cy="200" fill="#cfd2fc" r="16"/><path d="m349.657 18.343a8 8 0 0 0 -5.657-2.343h-224a56.063 56.063 0 0 0 -56 56v368a56.063 56.063 0 0 0 56 56h272a56.063 56.063 0 0 0 56-56v-320a8 8 0 0 0 -2.343-5.657zm2.343 24.97 68.687 68.687h-28.687a40.045 40.045 0 0 1 -40-40zm-232-11.313h216v40a56.063 56.063 0 0 0 56 56h40v224h-352v-280a40.045 40.045 0 0 1 40-40zm272 448h-272a40.045 40.045 0 0 1 -40-40v-72h352v72a40.045 40.045 0 0 1 -40 40z"/><path d="m248 384h-16a8 8 0 0 0 -8 8v64a8 8 0 0 0 16 0v-24h8a24 24 0 0 0 0-48zm0 32h-8v-16h8a8 8 0 0 1 0 16z"/><path d="m200 384a8 8 0 0 0 -8 8v48a8 8 0 0 1 -16 0 8 8 0 0 0 -16 0 24 24 0 0 0 48 0v-48a8 8 0 0 0 -8-8z"/><path d="m344 416h-16a8 8 0 0 0 0 16h7.049c-2.252 9.217-8.236 16-15.049 16-8.673 0-16-10.991-16-24s7.327-24 16-24a10.71 10.71 0 0 1 4.589 1.057 8 8 0 0 0 6.822-14.473 26.6 26.6 0 0 0 -11.411-2.584c-17.645 0-32 17.944-32 40s14.355 40 32 40 32-17.944 32-40a8 8 0 0 0 -8-8z"/><path d="m152 304h208a8 8 0 0 0 8-8v-160a8 8 0 0 0 -8-8h-208a8 8 0 0 0 -8 8v160a8 8 0 0 0 8 8zm16.645-16 47.482-59.352 33.727 40.474a8 8 0 0 0 8.676 2.467l43.7-14.567 36.144 30.978zm183.355-144v134.606l-42.794-36.68a8 8 0 0 0 -7.736-1.515l-42.82 14.273-36.5-43.806a8 8 0 0 0 -6.15-2.878h-.08a8 8 0 0 0 -6.167 3l-49.753 62.194v-129.194z"/><path d="m288 224a24 24 0 1 0 -24-24 24.027 24.027 0 0 0 24 24zm0-32a8 8 0 1 1 -8 8 8.009 8.009 0 0 1 8-8z"/></svg>