<svg id="Filled" height="512" viewBox="0 0 512 512" width="512" xmlns="http://www.w3.org/2000/svg"><path d="m392 488h-272a48 48 0 0 1 -48-48v-368a48 48 0 0 1 48-48h224l96 96v320a48 48 0 0 1 -48 48z" fill="#8690fa"/><path d="m168 120h176v176h-176z" fill="#fff"/><path d="m168 264h176v32h-176z" fill="#5153ff"/><path d="m72 360h368a0 0 0 0 1 0 0v80a48 48 0 0 1 -48 48h-272a48 48 0 0 1 -48-48v-80a0 0 0 0 1 0 0z" fill="#cfd2fc"/><path d="m440 120h-48a48 48 0 0 1 -48-48v-48z" fill="#cfd2fc"/><path d="m240 232v-48l48 24z" fill="#5153ff"/><path d="m168 120h176v32h-176z" fill="#5153ff"/><path d="m349.657 18.343a8 8 0 0 0 -5.657-2.343h-224a56.064 56.064 0 0 0 -56 56v368a56.064 56.064 0 0 0 56 56h272a56.064 56.064 0 0 0 56-56v-320a8 8 0 0 0 -2.343-5.657zm2.343 24.97 68.687 68.687h-28.687a40.045 40.045 0 0 1 -40-40zm-232-11.313h216v40a56.064 56.064 0 0 0 56 56h40v224h-352v-280a40.045 40.045 0 0 1 40-40zm272 448h-272a40.045 40.045 0 0 1 -40-40v-72h352v72a40.045 40.045 0 0 1 -40 40z"/><path d="m264 384c-17.645 0-32 17.944-32 40s14.355 40 32 40 32-17.944 32-40-14.355-40-32-40zm0 64c-8.673 0-16-10.991-16-24s7.327-24 16-24 16 10.991 16 24-7.327 24-16 24z"/><path d="m353.94 384.239a8 8 0 0 0 -9.7 5.821l-8.24 32.955-8.239-32.955a8 8 0 1 0 -15.522 3.88l16 64a8 8 0 0 0 15.522 0l16-64a8 8 0 0 0 -5.821-9.701z"/><path d="m209.838 384.214a8 8 0 0 0 -8.993 4.208l-16.845 33.689-16.845-33.689a8 8 0 0 0 -15.155 3.578v64a8 8 0 0 0 16 0v-30.111l8.845 17.689a8 8 0 0 0 14.31 0l8.845-17.689v30.111a8 8 0 0 0 16 0v-64a8 8 0 0 0 -6.162-7.786z"/><path d="m291.578 200.845-48-24a8 8 0 0 0 -11.578 7.155v48a8 8 0 0 0 11.578 7.155l48-24a8 8 0 0 0 0-14.31zm-43.578 18.211v-22.112l22.111 11.056z"/><path d="m160 296a8 8 0 0 0 8 8h176a8 8 0 0 0 0-16v-16a8 8 0 0 0 8-8v-112a8 8 0 0 0 -8-8v-16a8 8 0 0 0 0-16h-176a8 8 0 0 0 0 16v16a8 8 0 0 0 -8 8v112a8 8 0 0 0 8 8v16a8 8 0 0 0 -8 8zm16-40v-96h160v96zm104-112v-16h16v16zm-16 0h-16v-16h16zm-32 0h-16v-16h16zm32 128v16h-16v-16zm16 0h16v16h-16zm-48 0v16h-16v-16zm96 16h-16v-16h16zm0-144h-16v-16h16zm-144-16h16v16h-16zm0 144h16v16h-16z"/></svg>