<svg id="Filled" height="512" viewBox="0 0 512 512" width="512" xmlns="http://www.w3.org/2000/svg"><path d="m392 488h-272a48 48 0 0 1 -48-48v-368a48 48 0 0 1 48-48h224l96 96v320a48 48 0 0 1 -48 48z" fill="#8690fa"/><path d="m72 360h368a0 0 0 0 1 0 0v80a48 48 0 0 1 -48 48h-272a48 48 0 0 1 -48-48v-80a0 0 0 0 1 0 0z" fill="#cfd2fc"/><path d="m440 120h-48a48 48 0 0 1 -48-48v-48z" fill="#cfd2fc"/><circle cx="256" cy="200" fill="#fff" r="96"/><path d="m232 232v-64l64 32z" fill="#5153ff"/><path d="m349.657 18.343a8 8 0 0 0 -5.657-2.343h-224a56.063 56.063 0 0 0 -56 56v368a56.063 56.063 0 0 0 56 56h272a56.063 56.063 0 0 0 56-56v-320a8 8 0 0 0 -2.343-5.657zm2.343 24.97 68.687 68.687h-28.687a40.045 40.045 0 0 1 -40-40zm-232-11.313h216v40a56.063 56.063 0 0 0 56 56h40v224h-352v-280a40.045 40.045 0 0 1 40-40zm272 448h-272a40.045 40.045 0 0 1 -40-40v-72h352v72a40.045 40.045 0 0 1 -40 40z"/><path d="m216 384a7.979 7.979 0 0 0 -5.657 2.343l-18.343 18.344-18.343-18.344a8 8 0 0 0 -13.657 5.657v64a8 8 0 0 0 16 0v-44.687l10.343 10.344a8 8 0 0 0 11.314 0l10.343-10.343v44.686a8 8 0 0 0 16 0v-64a8 8 0 0 0 -8-8z"/><path d="m264 384h-16a8 8 0 0 0 -8 8v64a8 8 0 0 0 16 0v-24h8a24 24 0 0 0 0-48zm0 32h-8v-16h8a8 8 0 0 1 0 16z"/><path d="m344 384a8 8 0 0 0 -8 8v24h-16v-24a8 8 0 0 0 -16 0v32a8 8 0 0 0 8 8h24v24a8 8 0 0 0 16 0v-64a8 8 0 0 0 -8-8z"/><path d="m256 304a104 104 0 1 0 -104-104 104.118 104.118 0 0 0 104 104zm0-192a88 88 0 1 1 -88 88 88.1 88.1 0 0 1 88-88z"/><path d="m227.794 238.805a8 8 0 0 0 7.784.35l64-32a8 8 0 0 0 0-14.31l-64-32a8 8 0 0 0 -11.578 7.155v64a8 8 0 0 0 3.794 6.805zm12.206-57.861 38.111 19.056-38.111 19.056z"/></svg>