<svg id="Filled" height="512" viewBox="0 0 512 512" width="512" xmlns="http://www.w3.org/2000/svg"><path d="m392 488h-272a48 48 0 0 1 -48-48v-368a48 48 0 0 1 48-48h224l96 96v320a48 48 0 0 1 -48 48z" fill="#8690fa"/><path d="m208 200h96v96h-96z" fill="#fff"/><g fill="#cfd2fc"><path d="m72 360h368a0 0 0 0 1 0 0v80a48 48 0 0 1 -48 48h-272a48 48 0 0 1 -48-48v-80a0 0 0 0 1 0 0z"/><path d="m440 120h-48a48 48 0 0 1 -48-48v-48z"/><circle cx="200" cy="184" r="48"/></g><path d="m312 136 48 96h-96z" fill="#5153ff"/><path d="m349.657 18.343a8 8 0 0 0 -5.657-2.343h-224a56.063 56.063 0 0 0 -56 56v368a56.063 56.063 0 0 0 56 56h272a56.063 56.063 0 0 0 56-56v-320a8 8 0 0 0 -2.343-5.657zm2.343 24.97 68.687 68.687h-28.687a40.045 40.045 0 0 1 -40-40zm-232-11.313h216v40a56.063 56.063 0 0 0 56 56h40v224h-352v-280a40.045 40.045 0 0 1 40-40zm272 448h-272a40.045 40.045 0 0 1 -40-40v-72h352v72a40.045 40.045 0 0 1 -40 40z"/><path d="m344 384a8 8 0 0 0 -8 8v48a8 8 0 0 1 -16 0 8 8 0 0 0 -16 0 24 24 0 0 0 48 0v-48a8 8 0 0 0 -8-8z"/><path d="m264 384h-16a8 8 0 0 0 -8 8v64a8 8 0 0 0 8 8h16a23.984 23.984 0 0 0 17.869-40 23.984 23.984 0 0 0 -17.869-40zm-8 16h8a8 8 0 0 1 0 16h-8zm8 48h-8v-16h8a8 8 0 0 1 0 16z"/><path d="m192 384c-17.645 0-32 17.944-32 40s14.355 40 32 40 32-17.944 32-40-14.355-40-32-40zm0 64c-8.673 0-16-10.99-16-24s7.327-24 16-24 16 10.99 16 24-7.327 24-16 24z"/><path d="m200 240v56a8 8 0 0 0 8 8h96a8 8 0 0 0 8-8v-56h48a8 8 0 0 0 7.155-11.578l-48-96a8 8 0 0 0 -14.31 0l-29.789 59.578h-19.637a56 56 0 1 0 -55.419 48zm112-86.111 35.056 70.111h-35.056v-24a8 8 0 0 0 -8-8h-11.056zm-27.056 54.111h11.056v16h-19.056zm-17.888 0-10.211 20.422a8 8 0 0 0 7.155 11.578h32v48h-80v-50.341a56.261 56.261 0 0 0 34.586-29.659zm-51.056 12.65v-12.65h15.978a40.228 40.228 0 0 1 -15.978 12.65zm-16-76.65a40.014 40.014 0 0 1 39.2 48h-31.2a8 8 0 0 0 -8 8v24a40 40 0 0 1 0-80z"/></svg>