<svg id="Filled" height="512" viewBox="0 0 512 512" width="512" xmlns="http://www.w3.org/2000/svg"><path d="m392 488h-272a48 48 0 0 1 -48-48v-368a48 48 0 0 1 48-48h224l96 96v320a48 48 0 0 1 -48 48z" fill="#8690fa"/><path d="m256 296-112-112 32-48h160l32 48z" fill="#5153ff"/><path d="m176 136-32 48h224l-32-48z" fill="#fff"/><path d="m72 360h368a0 0 0 0 1 0 0v80a48 48 0 0 1 -48 48h-272a48 48 0 0 1 -48-48v-80a0 0 0 0 1 0 0z" fill="#cfd2fc"/><path d="m440 120h-48a48 48 0 0 1 -48-48v-48z" fill="#cfd2fc"/><path d="m256 296 48-112h-96z" fill="#fff"/><path d="m232 136-24 48h96l-24-48z" fill="#5153ff"/><path d="m349.657 18.343a8 8 0 0 0 -5.657-2.343h-224a56.064 56.064 0 0 0 -56 56v368a56.064 56.064 0 0 0 56 56h272a56.064 56.064 0 0 0 56-56v-320a8 8 0 0 0 -2.343-5.657zm2.343 24.97 68.687 68.687h-28.687a40.045 40.045 0 0 1 -40-40zm-232-11.313h216v40a56.064 56.064 0 0 0 56 56h40v224h-352v-280a40.045 40.045 0 0 1 40-40zm272 448h-272a40.045 40.045 0 0 1 -40-40v-72h352v72a40.045 40.045 0 0 1 -40 40z"/><path d="m256 400h16a8 8 0 0 0 0-16h-16a24 24 0 0 0 0 48 8 8 0 0 1 0 16h-16a8 8 0 0 0 0 16h16a24 24 0 0 0 0-48 8 8 0 0 1 0-16z"/><path d="m192 384h-16a8 8 0 0 0 -8 8v64a8 8 0 0 0 16 0v-24h8a24 24 0 0 0 0-48zm0 32h-8v-16h8a8 8 0 0 1 0 16z"/><path d="m304 384a8 8 0 0 0 -8 8v64a8 8 0 0 0 8 8 40 40 0 0 0 0-80zm8 62.629v-45.258a24 24 0 0 1 0 45.258z"/><path d="m374.656 179.562-32-48a8 8 0 0 0 -6.656-3.562h-160a8 8 0 0 0 -6.656 3.562l-32 48a8 8 0 0 0 1 10.095l112 112a8 8 0 0 0 11.314 0l112-112a8 8 0 0 0 .998-10.095zm-21.604-3.562h-44.108l-16-32h38.775zm-150.327 16 29.558 68.97-68.969-68.97zm89.142 0-35.867 83.691-35.867-83.691zm-70.923-16 16-32h38.112l16 32zm88.331 16h39.411l-68.969 68.97zm-128.994-48h38.775l-16 32h-44.108z"/></svg>