<svg id="Filled" height="512" viewBox="0 0 512 512" width="512" xmlns="http://www.w3.org/2000/svg"><path d="m392 488h-272a48 48 0 0 1 -48-48v-368a48 48 0 0 1 48-48h224l96 96v320a48 48 0 0 1 -48 48z" fill="#8690fa"/><path d="m352 176v120c0-13.25-21.49-24-48-24-16.7 0-31.4 4.27-40 10.74-5.06 3.8-8 8.36-8 13.26 0-4.9-2.94-9.46-8-13.26-8.6-6.47-23.3-10.74-40-10.74-26.51 0-48 10.75-48 24v-120c0-13.25 21.49-24 48-24 16.7 0 31.4 4.27 40 10.74 5.06 3.8 8 8.36 8 13.26 0-4.9 2.94-9.46 8-13.26 8.6-6.47 23.3-10.74 40-10.74 26.51 0 48 10.75 48 24z" fill="#fff"/><path d="m72 360h368a0 0 0 0 1 0 0v80a48 48 0 0 1 -48 48h-272a48 48 0 0 1 -48-48v-80a0 0 0 0 1 0 0z" fill="#cfd2fc"/><path d="m440 120h-48a48 48 0 0 1 -48-48v-48z" fill="#cfd2fc"/><path d="m349.657 18.343a8 8 0 0 0 -5.657-2.343h-224a56.063 56.063 0 0 0 -56 56v368a56.063 56.063 0 0 0 56 56h272a56.063 56.063 0 0 0 56-56v-320a8 8 0 0 0 -2.343-5.657zm2.343 24.97 68.687 68.687h-28.687a40.045 40.045 0 0 1 -40-40zm-232-11.313h216v40a56.063 56.063 0 0 0 56 56h40v224h-352v-280a40.045 40.045 0 0 1 40-40zm272 448h-272a40.045 40.045 0 0 1 -40-40v-72h352v72a40.045 40.045 0 0 1 -40 40z"/><path d="m160 304a8 8 0 0 0 8-8c0-3.082 3.692-6.843 9.637-9.815 7.863-3.931 18.927-6.185 30.363-6.185s22.5 2.254 30.363 6.185c5.945 2.972 9.637 6.733 9.637 9.815a8 8 0 0 0 16 0c0-3.082 3.692-6.843 9.637-9.815 7.863-3.931 18.927-6.185 30.363-6.185s22.5 2.254 30.363 6.185c5.945 2.972 9.637 6.733 9.637 9.815a8 8 0 0 0 16 0v-120c0-18.243-24.075-32-56-32-20.861 0-38.37 5.873-48 15.034-9.63-9.161-27.139-15.034-48-15.034-31.925 0-56 13.757-56 32v120a8 8 0 0 0 8 8zm113.637-137.815c7.863-3.931 18.927-6.185 30.363-6.185s22.5 2.254 30.363 6.185c5.945 2.972 9.637 6.733 9.637 9.815v97.175c-10.011-5.73-24.022-9.175-40-9.175s-29.988 3.458-40 9.192v-97.192c0-3.082 3.692-6.843 9.637-9.815zm-105.637 9.815c0-3.082 3.692-6.843 9.637-9.815 7.863-3.931 18.927-6.185 30.363-6.185s22.5 2.254 30.363 6.185c5.945 2.972 9.637 6.733 9.637 9.815v97.192c-10.012-5.734-24.014-9.192-40-9.192s-29.989 3.445-40 9.175z"/><path d="m320 384h-16a8 8 0 0 0 -8 8v64a8 8 0 0 0 8 8h16a23.984 23.984 0 0 0 17.869-40 23.984 23.984 0 0 0 -17.869-40zm-8 16h8a8 8 0 0 1 0 16h-8zm8 48h-8v-16h8a8 8 0 0 1 0 16z"/><path d="m192 384h-16a8 8 0 0 0 -8 8v64a8 8 0 0 0 16 0v-24h8a24 24 0 0 0 0-48zm0 32h-8v-16h8a8 8 0 0 1 0 16z"/><path d="m272 384a8 8 0 0 0 -8 8v48a8 8 0 0 1 -16 0v-48a8 8 0 0 0 -16 0v48a24 24 0 0 0 48 0v-48a8 8 0 0 0 -8-8z"/></svg>