<svg id="Filled" height="512" viewBox="0 0 512 512" width="512" xmlns="http://www.w3.org/2000/svg"><path d="m392 488h-272a48 48 0 0 1 -48-48v-368a48 48 0 0 1 48-48h224l96 96v320a48 48 0 0 1 -48 48z" fill="#8690fa"/><path d="m160 152h192v144h-192z" fill="#fff"/><path d="m160 152h192v32h-192z" fill="#5153ff"/><path d="m72 360h368a0 0 0 0 1 0 0v80a48 48 0 0 1 -48 48h-272a48 48 0 0 1 -48-48v-80a0 0 0 0 1 0 0z" fill="#cfd2fc"/><path d="m440 120h-48a48 48 0 0 1 -48-48v-48z" fill="#cfd2fc"/><path d="m349.657 18.343a8 8 0 0 0 -5.657-2.343h-224a56.063 56.063 0 0 0 -56 56v368a56.063 56.063 0 0 0 56 56h272a56.063 56.063 0 0 0 56-56v-320a8 8 0 0 0 -2.343-5.657zm2.343 24.97 68.687 68.687h-28.687a40.045 40.045 0 0 1 -40-40zm-232-11.313h216v40a56.063 56.063 0 0 0 56 56h40v224h-352v-280a40.045 40.045 0 0 1 40-40zm272 448h-272a40.045 40.045 0 0 1 -40-40v-72h352v72a40.045 40.045 0 0 1 -40 40z"/><path d="m192 400h16a8 8 0 0 0 0-16h-16a24 24 0 0 0 0 48 8 8 0 0 1 0 16h-16a8 8 0 0 0 0 16h16a24 24 0 0 0 0-48 8 8 0 0 1 0-16z"/><path d="m259.106 431.792a24 24 0 0 0 -3.106-47.792h-16a8 8 0 0 0 -8 8v64a8 8 0 0 0 16 0v-12.686l18.343 18.343a8 8 0 0 0 11.314-11.314zm-11.106-31.792h8a8 8 0 0 1 0 16h-8z"/><path d="m336 384h-32a8 8 0 0 0 0 16h8v56h.007a7.993 7.993 0 1 0 15.986 0h.007v-56h8a8 8 0 0 0 0-16z"/><path d="m312 256h-112a8 8 0 0 0 0 16h112a8 8 0 0 0 0-16z"/><path d="m160 304h192a8 8 0 0 0 8-8v-144a8 8 0 0 0 -8-8h-192a8 8 0 0 0 -8 8v144a8 8 0 0 0 8 8zm8-16v-96h176v96zm132.944-112-8-16h14.112l8 16zm-17.888 0h-14.112l-8-16h14.112zm-32 0h-14.112l-8-16h14.112zm-32 0h-14.112l-8-16h14.112zm124.944 0h-11.056l-8-16h19.056zm-164.944-16 8 16h-19.056v-16z"/></svg>