<svg width="97.88" height="122.88" xmlns="http://www.w3.org/2000/svg">

 <g>
  <title>background</title>
  <rect fill="none" id="canvas_background" height="602" width="802" y="-1" x="-1"/>
 </g>
 <g>
  <title>Layer 1</title>
  <g id="svg_1">
   <path fill="#8690fa" id="svg_2" d="m66.69,0.69c-0.46,-0.41 -1.11,-0.69 -1.75,-0.69c-0.14,0 -0.28,0 -0.41,0.05l-58.72,0c-1.57,0 -3.04,0.64 -4.1,1.7c-1.06,1.06 -1.71,2.49 -1.71,4.1l0,111.22c0,1.61 0.65,3.04 1.71,4.1c1.06,1.06 2.49,1.7 4.1,1.7c29.59,0 56.74,0 86.18,0c1.61,0 3.04,-0.65 4.1,-1.7c1.06,-1.06 1.7,-2.49 1.7,-4.1l0,-83.21c0.05,-0.23 0.09,-0.41 0.09,-0.64c0,-0.78 -0.37,-1.47 -0.87,-1.98l-30,-30.36c-0.09,-0.09 -0.14,-0.14 -0.23,-0.18l-0.09,0l0,-0.01zm-11.45,85.51l-14.98,0l0,-1.5c0,-2.55 0.3,-4.62 0.87,-6.21c0.58,-1.6 1.42,-3.05 2.57,-4.37c1.14,-1.32 3.71,-3.63 7.7,-6.95c2.12,-1.73 3.18,-3.33 3.18,-4.77c0,-1.45 -0.43,-2.58 -1.29,-3.37c-0.85,-0.81 -2.15,-1.21 -3.88,-1.21c-1.88,0 -3.43,0.62 -4.65,1.85c-1.22,1.22 -2,3.39 -2.35,6.45l-15.24,-1.89c0.52,-5.6 2.57,-10.12 6.13,-13.53c3.56,-3.43 9.02,-5.13 16.36,-5.13c5.72,0 10.34,1.2 13.87,3.59c4.78,3.22 7.17,7.54 7.17,12.93c0,2.23 -0.62,4.38 -1.85,6.46c-1.22,2.07 -3.75,4.61 -7.55,7.6c-2.65,2.1 -4.33,3.79 -5.01,5.07c-0.7,1.28 -1.05,2.93 -1.05,4.98l0,0zm-15.49,3.95l16.04,0l0,11.65l-16.04,0l0,-11.65l0,0zm20.92,-82.51l0,20.92c0,2.17 0.88,4.74 2.3,6.17c1.43,1.43 4.45,2.6 6.62,2.6l20.66,0l0,77.35c0,0.14 -0.2,0.32 -0.33,0.41c-0.09,0.09 -0.08,0.18 -0.27,0.18c-23.42,0 -58.73,0 -81.51,0c-0.14,0 -0.32,-0.05 -0.42,-0.18c-0.09,-0.09 -0.18,-0.28 -0.18,-0.41l0,-106.44c0,-0.18 0.05,-0.32 0.18,-0.42c0.09,-0.09 0.23,-0.18 0.42,-0.18l52.53,0l0,0l0,0zm6.85,20.33l0,-19.03l21.43,21.7l-18.76,0c-0.74,0 -1.38,-0.32 -1.89,-0.78c-0.46,-0.46 -0.78,-1.16 -0.78,-1.89l0,0z"/>
  </g>
 </g>
</svg>