<svg id="Filled" height="512" viewBox="0 0 512 512" width="512" xmlns="http://www.w3.org/2000/svg"><path d="m392 488h-272a48 48 0 0 1 -48-48v-368a48 48 0 0 1 48-48h224l96 96v320a48 48 0 0 1 -48 48z" fill="#8690fa"/><path d="m144 160h224v128h-224z" fill="#5153ff"/><path d="m216 200h152v88h-152z" fill="#fff"/><path d="m72 360h368a0 0 0 0 1 0 0v80a48 48 0 0 1 -48 48h-272a48 48 0 0 1 -48-48v-80a0 0 0 0 1 0 0z" fill="#cfd2fc"/><path d="m440 120h-48a48 48 0 0 1 -48-48v-48z" fill="#cfd2fc"/><path d="m349.657 18.343a8 8 0 0 0 -5.657-2.343h-224a56.064 56.064 0 0 0 -56 56v368a56.064 56.064 0 0 0 56 56h272a56.064 56.064 0 0 0 56-56v-320a8 8 0 0 0 -2.343-5.657zm2.343 24.97 68.687 68.687h-28.687a40.045 40.045 0 0 1 -40-40zm-232-11.313h216v40a56.064 56.064 0 0 0 56 56h40v224h-352v-280a40.045 40.045 0 0 1 40-40zm272 448h-272a40.045 40.045 0 0 1 -40-40v-72h352v72a40.045 40.045 0 0 1 -40 40z"/><path d="m272 448h-24v-56a8 8 0 0 0 -16 0v64a8 8 0 0 0 8 8h32a8 8 0 0 0 0-16z"/><path d="m211.578 384.845a8 8 0 0 0 -10.733 3.577l-8.845 17.69-8.845-17.69a8 8 0 0 0 -14.31 7.156l14.211 28.422-14.211 28.422a8 8 0 1 0 14.31 7.156l8.845-17.69 8.845 17.69a8 8 0 1 0 14.31-7.156l-14.211-28.422 14.211-28.422a8 8 0 0 0 -3.577-10.733z"/><path d="m320 400h16a8 8 0 0 0 0-16h-16a24 24 0 0 0 0 48 8 8 0 0 1 0 16h-16a8 8 0 0 0 0 16h16a24 24 0 0 0 0-48 8 8 0 0 1 0-16z"/><path d="m136 304h240a8 8 0 0 0 8-8v-144a8 8 0 0 0 -8-8h-240a8 8 0 0 0 -8 8v144a8 8 0 0 0 8 8zm8-48h64v32h-64zm144-48v32h-64v-32zm-64-16v-32h64v32zm80 16h64v32h-64zm-16 48v32h-64v-32zm-80-16h-64v-32h64zm96 48v-32h64v32zm64-96h-64v-32h64zm-160-32v32h-64v-32z"/></svg>