<svg id="Filled" height="512" viewBox="0 0 512 512" width="512" xmlns="http://www.w3.org/2000/svg"><path d="m392 488h-272a48 48 0 0 1 -48-48v-368a48 48 0 0 1 48-48h224l96 96v320a48 48 0 0 1 -48 48z" fill="#8690fa"/><path d="m160 24h48v192h-48z" fill="#fff"/><path d="m72 360h368a0 0 0 0 1 0 0v80a48 48 0 0 1 -48 48h-272a48 48 0 0 1 -48-48v-80a0 0 0 0 1 0 0z" fill="#cfd2fc"/><path d="m440 120h-48a48 48 0 0 1 -48-48v-48z" fill="#cfd2fc"/><path d="m198.12 272.479-6.12-24.479h-16l-6.12 24.479a16 16 0 1 0 28.24 0z" fill="#5153ff"/><path d="m349.657 18.343a8 8 0 0 0 -5.657-2.343h-224a56.063 56.063 0 0 0 -56 56v368a56.063 56.063 0 0 0 56 56h272a56.063 56.063 0 0 0 56-56v-320a8 8 0 0 0 -2.343-5.657zm2.343 24.97 68.687 68.687h-28.687a40.045 40.045 0 0 1 -40-40zm-232-11.313h56v16h-16a8 8 0 0 0 0 16h16v16h-16a8 8 0 0 0 0 16h16v16h-16a8 8 0 0 0 0 16h16v16h-16a8 8 0 0 0 0 16h16v16h-16a8 8 0 0 0 0 16h16v16h-16a8 8 0 0 0 0 16h16v16a8 8 0 0 0 -7.761 6.06l-5.906 23.622a24 24 0 1 0 43.334 0l-5.906-23.622a8 8 0 0 0 -7.761-6.06v-16h16a8 8 0 0 0 0-16h-16v-16h16a8 8 0 0 0 0-16h-16v-16h16a8 8 0 0 0 0-16h-16v-16h16a8 8 0 0 0 0-16h-16v-16h16a8 8 0 0 0 0-16h-16v-16h16a8 8 0 0 0 0-16h-16v-16h144v40a56.063 56.063 0 0 0 56 56h40v224h-352v-280a40.045 40.045 0 0 1 40-40zm72 248a8 8 0 0 1 -16 0 7.9 7.9 0 0 1 .938-3.756 8 8 0 0 0 .7-1.825l4.608-18.419h3.508l4.605 18.419a8 8 0 0 0 .7 1.825 7.9 7.9 0 0 1 .941 3.756zm200 200h-272a40.045 40.045 0 0 1 -40-40v-72h352v72a40.045 40.045 0 0 1 -40 40z"/><path d="m272 400a8 8 0 0 0 0-16h-32a8 8 0 0 0 0 16h8v48h-8a8 8 0 0 0 0 16h32a8 8 0 0 0 0-16h-8v-48z"/><path d="m320 384h-16a8 8 0 0 0 -8 8v64a8 8 0 0 0 16 0v-24h8a24 24 0 0 0 0-48zm0 32h-8v-16h8a8 8 0 0 1 0 16z"/><path d="m208 448h-19.056l26.211-52.422a8 8 0 0 0 -7.155-11.578h-32a8 8 0 0 0 0 16h19.056l-26.211 52.422a8 8 0 0 0 7.155 11.578h32a8 8 0 0 0 0-16z"/></svg>